<svg id="Capa_1" data-name="Capa 1" xmlns="http://www.w3.org/2000/svg" viewBox="0 0 2834.65 604.54"><defs><style>.cls-1{font-size:422.7px;font-family:ComicSansMS-Bold, Comic Sans MS;font-weight:700;}.cls-1,.cls-2{fill:#369742;}.cls-3{fill:#fff;}</style></defs><text class="cls-1" transform="translate(611.32 509.67) scale(0.87 1)">und</text><text class="cls-1" transform="translate(1883.5 540.68) scale(0.87 1)">nimal</text><ellipse class="cls-2" cx="1598.72" cy="145.22" rx="53.47" ry="100.37" transform="translate(-5.09 214.41) rotate(-7.66)"/><ellipse class="cls-2" cx="1755.25" cy="142.16" rx="102.16" ry="52.85" transform="translate(1432.14 1873.26) rotate(-84.06)"/><ellipse class="cls-2" cx="1859.68" cy="262.87" rx="113.37" ry="53.34" transform="translate(1233.37 2033.54) rotate(-78.57)"/><ellipse class="cls-2" cx="1498.22" cy="263.41" rx="54.16" ry="107.45" transform="translate(-20.05 357.81) rotate(-13.53)"/><path class="cls-2" d="M1677.08,223.75s-362.92,339.17-43.21,336.65c6.47-12.2,16.55-24.86,25.37-34.81a24.13,24.13,0,0,1,36.14,0c8.82,9.95,18.89,22.61,25.37,34.81C2039.64,562.59,1677.08,223.75,1677.08,223.75Zm.23,257.08c-196.77,16.62,0-167.28,0-167.28S1874.08,497.45,1677.31,480.83Z"/><circle class="cls-2" cx="1320.99" cy="413.07" r="112.66"/><path class="cls-3" d="M1220,372.34s5.28,7.49,5.83,11.66,1.79,3.89,6,5.83,8.13,6.67,8.13,8.34,7.84.83,7.81,7.78,9.65-11.67,9.65-11.67l8.1-6.11,15-5,11.66-15-18-11.95L1220,363.45Z"/><path class="cls-3" d="M1247.83,411.5s-3.11,5-3.38,7.5-3.61,12.78.15,18.61,9.32,22.78,9.32,22.78l2.21,20.28v9.72l-2.5,10L1265,482.61l4.72-8.33s2.23-1.39,6.11-11.39a116.89,116.89,0,0,0,6.12-20.83c.83-4.17-8.06-21.39-8.06-21.39l-17.78-7.78Z"/><path class="cls-3" d="M1311.69,357.89s-7,11.11-1.67,16.67,6.67,17.5,10.56,18.89,1.94,9.77,8.61,14.05,31.11,9.83,35.27,9.83,13.89,24.73,13.89,24.73l4.45,15.55-1.67,15.28,8.06,11.39,21.66-11.67L1422,443.72v-27.5l-30.27-48.33-38.61-10S1320,345.67,1311.69,357.89Z"/><path class="cls-2" d="M592.31,315.77C586.68,143.25,561,73.19,542.74,44.93a20.65,20.65,0,0,0-33.82-1c-13.52,18-38.16,53.59-80.84,122.55A298.84,298.84,0,0,0,397,235.62c-6,19.34-33.09,19.7-39.41.46-6.15-18.74-13.44-38.05-22.08-57.67-65.69-149.3-128.39-65.69-128.39,0C207.12,233,96,402.79,58.23,458.85a20.66,20.66,0,0,0,6.94,29.51q28.1,15.93,55.91,28.4a20.68,20.68,0,0,0,22.79-3.93L263,398.91a20.68,20.68,0,0,1,34.52,10.66l31.11,147.31a20.64,20.64,0,0,0,18.78,16.35q14,.93,27.59,1.25a20.63,20.63,0,0,0,19.53-12.74l56.81-136.85a20.67,20.67,0,0,1,36.93-2.53L556.55,539a20.67,20.67,0,0,0,23.54,9.43c6.73-1.95,12.86-3.84,18.36-5.63a20.61,20.61,0,0,0,13.34-25.59C604.13,492,596.22,435.82,592.31,315.77Z"/><path class="cls-3" d="M180.24,256.21c6.18,11.91,11.9,24,17.46,36.19,2.82,6.07,5.48,12.21,8.22,18.31a18.5,18.5,0,0,0,21.79,10.86,18.08,18.08,0,0,0,4.1-1.63l1.15-.59c.42-.21.83-.44,1.25-.63a22.85,22.85,0,0,1,23.52,3.19,23,23,0,0,1,3.76,3.95l3,4,5.88,8.15c3.86,5.47,7.73,10.93,11.43,16.53-4.57-4.91-9-10-13.37-15l-6.52-7.63-3.23-3.85a19.92,19.92,0,0,0-3.33-3.1,18.21,18.21,0,0,0-1.9-1.24,21.17,21.17,0,0,0-2-1,19,19,0,0,0-4.31-1.24,18.23,18.23,0,0,0-8.8.74c-.71.2-1.37.55-2.06.81-.34.16-.66.35-1,.52l-1.07.56a23.09,23.09,0,0,1-16.28,2.43,23.64,23.64,0,0,1-9.91-5l-.54-.45-.5-.5-1-1c-.63-.69-1.18-1.45-1.76-2.18s-1-1.57-1.46-2.39-.85-1.72-1.15-2.49c-2.49-6.21-5-12.39-7.45-18.63C189.24,281.46,184.51,268.93,180.24,256.21Z"/><path class="cls-3" d="M591.54,295.74c-1.66-.72-3.35-1.36-5-2s-3.39-1.22-5.11-1.75A95.07,95.07,0,0,0,571,289.27,60.54,60.54,0,0,0,560.51,288a30.7,30.7,0,0,0-10.09,1.22,16.08,16.08,0,0,0-7.88,5.25,14.14,14.14,0,0,0-1.36,1.95c-.43.67-.71,1.44-1.08,2.15s-.55,1.55-.83,2.31-.5,1.72-.75,2.58l-6.16,20.79-.79,2.59a23.43,23.43,0,0,1-1,2.81,20.79,20.79,0,0,1-1.4,2.69c-.55.9-1,1.6-1.56,2.36l-6.07,9-3.08,4.46-.77,1.11c-.25.37-.52.75-.83,1.15l-.92,1.2c-.32.38-.67.73-1,1.1a22.08,22.08,0,0,1-10.1,6.08,24.15,24.15,0,0,1-5.84.84,21.84,21.84,0,0,1-5.81-.74,11.28,11.28,0,0,1-1.4-.42c-.46-.17-.92-.32-1.37-.5a24.16,24.16,0,0,1-2.59-1.31l-1.24-.74-1.13-.75-2.25-1.51c-6-4.06-12-8.12-17.86-12.36,6.46,3.3,12.79,6.79,19.14,10.27l2.37,1.33,1.18.66,1.14.57a21.36,21.36,0,0,0,2.32,1c.4.13.81.22,1.21.33a7.2,7.2,0,0,0,1.22.28,20.47,20.47,0,0,0,4.94.32,20.7,20.7,0,0,0,4.82-1,18.57,18.57,0,0,0,4.37-2.17l.52-.33.47-.37,1-.75a19.83,19.83,0,0,0,1.72-1.71c.26-.3.54-.6.79-.91l.7-1c.23-.31.48-.68.72-1.07l.73-1.14,2.94-4.56,6-9.06a24.24,24.24,0,0,0,2.49-4.31,19.12,19.12,0,0,0,.81-2.28l.77-2.6L534,302.05c.29-.87.53-1.7.86-2.6s.66-1.86,1.08-2.76.87-1.8,1.44-2.64a19.4,19.4,0,0,1,1.81-2.43l1-1.14c.37-.35.77-.67,1.15-1a16.14,16.14,0,0,1,2.47-1.78,10.51,10.51,0,0,1,1.33-.7c.45-.22.89-.46,1.36-.64a24.25,24.25,0,0,1,2.81-.92,32.62,32.62,0,0,1,11.39-.74,60.83,60.83,0,0,1,10.88,2.21,85.37,85.37,0,0,1,10.27,3.82A84.24,84.24,0,0,1,591.54,295.74Z"/></svg>